<svg xmlns="http://www.w3.org/2000/svg" version="1.1" xmlns:xlink="http://www.w3.org/1999/xlink" width="1000" height="1000"><g clip-path="url(#SvgjsClipPath1272)"><rect width="1000" height="1000" fill="#ffffff"></rect><g transform="matrix(2.130315799840153,0,0,2.130315799840153,150,317.3297234016226)"><svg xmlns="http://www.w3.org/2000/svg" version="1.1" xmlns:xlink="http://www.w3.org/1999/xlink" width="328.58978" height="171.49596"><svg width="328.58978" height="171.49596" viewBox="0 0 328.58978 171.49595" version="1.1" id="svg1" xmlns="http://www.w3.org/2000/svg" xmlns:svg="http://www.w3.org/2000/svg">
  <defs id="defs1"><clipPath id="SvgjsClipPath1272"><rect width="1000" height="1000" x="0" y="0" rx="500" ry="500"></rect></clipPath></defs>
  <g id="layer1" transform="translate(-1972.6926,-908.50405)">
    <path style="font-style:italic;font-weight:300;font-size:419.305px;line-height:0.95;font-family:'Cormorant Garamond';-inkscape-font-specification:'Cormorant Garamond, Light Italic';letter-spacing:-40px;fill:#1a1a1a;fill-opacity:1;stroke:#000000;stroke-width:0" d="m 2133.4905,1080 c -9.5042,0 -17.1915,-2.9351 -23.0617,-8.8054 -5.8703,-6.1499 -9.9236,-13.8372 -12.1599,-23.062 -1.9567,-9.2247 -2.2363,-18.5892 -0.8386,-28.0934 2.2363,-12.8587 6.5691,-26.27649 12.9985,-40.25332 6.7088,-13.97683 12.5791,-26.69575 17.6108,-38.15675 1.6772,-3.91351 2.0965,-6.56911 1.2579,-7.9668 -0.8386,-1.67722 -2.7954,-2.51583 -5.8703,-2.51583 h -114.4348 c -7.268,0 -12.7189,0.55907 -16.3529,1.67722 -3.634,0.83861 -6.5691,2.93514 -8.8054,6.28958 -1.9568,3.0749 -4.0533,8.10656 -6.2896,15.09498 -0.5591,1.11815 -1.6772,1.39768 -3.3544,0.83861 -1.3977,-0.55907 -1.817,-1.53745 -1.258,-2.93514 4.1931,-12.02007 7.8271,-20.82548 10.902,-26.41621 3.0749,-5.59073 6.8486,-9.22471 11.3212,-10.90193 4.4726,-1.67722 10.7622,-2.51583 18.8687,-2.51583 h 129.5299 c 2.5158,0 3.9135,0.27954 4.193,0.83861 0.5591,0.55907 0.2796,1.95676 -0.8386,4.19305 -6.7089,15.37451 -12.8587,31.58764 -18.4494,48.63938 -5.5907,17.05173 -9.2247,32.42625 -10.9019,46.12358 -1.9568,15.9336 -0.6989,28.6524 3.7737,38.1566 4.7521,9.2249 12.0201,13.8374 21.8039,13.8374 7.2679,0 14.5359,-2.3761 21.8038,-7.1284 7.5475,-4.7522 14.6757,-11.3214 21.3846,-19.7074 6.7089,-8.6657 12.5791,-18.8687 17.6108,-30.6092 5.0316,-12.02007 8.5259,-25.1583 10.4826,-39.41467 1.3977,-10.34285 1.2579,-18.58918 -0.4193,-24.73899 -1.6772,-6.14981 -4.7521,-9.22471 -9.2247,-9.22471 -4.4726,0 -7.9668,3.63398 -10.4826,10.90193 -2.2363,6.98841 -3.7738,13.97683 -4.6124,20.96525 -1.9567,13.69729 -2.5158,26.55598 -1.6772,38.57609 1.1181,12.02 3.4942,22.6425 7.1282,31.8671 3.634,8.9451 8.3861,15.9336 14.2563,20.9653 6.1499,5.0317 13.1383,7.5476 20.9653,7.5476 6.7089,0 13.8371,-2.9352 21.3846,-8.8056 7.827,-5.8703 14.9552,-14.1166 21.3845,-24.739 6.4294,-10.6223 10.9019,-23.0617 13.4178,-37.31806 2.2363,-13.13822 2.7953,-23.48108 1.6772,-31.02857 -0.8386,-7.82703 -2.5158,-13.83706 -5.0317,-18.03011 -2.5158,-4.47259 -5.0316,-8.10656 -7.5475,-10.90193 -1.6772,-1.95676 -3.2146,-3.77375 -4.6123,-5.45097 -1.1182,-1.95675 -1.6772,-4.19305 -1.6772,-6.70888 0,-4.75212 1.6772,-7.96679 5.0316,-9.64401 3.634,-1.95676 6.8487,-2.93514 9.644,-2.93514 6.4294,0 10.902,3.63398 13.4178,10.90193 2.5158,6.98842 3.7737,15.65406 3.7737,25.99691 0.2796,10.06332 -0.2795,19.70734 -1.6772,28.93205 -2.5158,16.7722 -6.7089,31.72738 -12.5791,44.86568 -5.8703,12.8586 -12.7189,23.9002 -20.546,33.125 -7.5475,8.9453 -15.3745,15.7939 -23.4811,20.5461 -8.1065,4.7521 -15.5142,7.1282 -22.2231,7.1282 -7.827,0 -14.8155,-2.9351 -20.9653,-8.8054 -5.8702,-5.8703 -10.6224,-13.6975 -14.2563,-23.4813 -3.3545,-10.0633 -5.451,-21.1049 -6.2896,-33.125 -0.8386,-12.2996 -0.1398,-24.739 2.0965,-37.31815 1.9568,-12.29961 4.6124,-23.48108 7.9668,-33.5444 3.3544,-10.06332 7.1282,-18.16988 11.3212,-24.31969 4.4726,-6.14981 8.8054,-9.22471 12.9985,-9.22471 6.4293,0 10.6224,4.75212 12.5791,14.25637 2.2363,9.22471 2.2363,19.84711 0,31.86718 -3.6339,21.24479 -8.9451,39.69421 -15.9335,55.3483 -6.9885,15.3745 -14.9553,28.2331 -23.9004,38.5759 -8.6657,10.0634 -17.6108,17.611 -26.8355,22.6427 -9.2248,4.7521 -17.8904,7.1282 -25.997,7.1283 z" id="path13-5"></path>
  </g>
</svg></svg></g></g></svg>