<?xml version="1.0" encoding="UTF-8" standalone="no"?>
<!-- Created with Inkscape (http://www.inkscape.org/) -->

<svg
   width="1080"
   height="1080"
   viewBox="0 0 1080 1080"
   version="1.1"
   id="svg1"
   inkscape:version="1.4.2 (2aeb623e1d, 2025-05-12)"
   sodipodi:docname="logo.svg"
   xmlns:inkscape="http://www.inkscape.org/namespaces/inkscape"
   xmlns:sodipodi="http://sodipodi.sourceforge.net/DTD/sodipodi-0.dtd"
   xmlns="http://www.w3.org/2000/svg"
   xmlns:svg="http://www.w3.org/2000/svg">
  <sodipodi:namedview
     id="namedview1"
     pagecolor="#ffffff"
     bordercolor="#000000"
     borderopacity="0.25"
     inkscape:showpageshadow="2"
     inkscape:pageopacity="0.0"
     inkscape:pagecheckerboard="0"
     inkscape:deskcolor="#d1d1d1"
     inkscape:document-units="px"
     inkscape:zoom="1"
     inkscape:cx="739.5"
     inkscape:cy="732.5"
     inkscape:window-width="1920"
     inkscape:window-height="1008"
     inkscape:window-x="0"
     inkscape:window-y="0"
     inkscape:window-maximized="1"
     inkscape:current-layer="layer1">
    <inkscape:page
       x="0"
       y="0"
       width="1080"
       height="1080"
       id="page11"
       margin="0"
       bleed="0" />
    <inkscape:page
       x="1186.0245"
       y="787.11646"
       width="697.9754"
       height="292.88351"
       id="page12"
       margin="623.11652 0 0 202.02458"
       bleed="0" />
    <inkscape:page
       x="1972.6926"
       y="908.50403"
       width="328.58978"
       height="171.49596"
       id="page15"
       margin="623.11652 0 0 130"
       bleed="0" />
    <inkscape:page
       x="2376.106"
       y="908.50403"
       width="328.58978"
       height="171.49596"
       id="page16"
       margin="623.11652 0 0 130"
       bleed="0" />
  </sodipodi:namedview>
  <defs
     id="defs1" />
  <g
     inkscape:label="Layer 1"
     inkscape:groupmode="layer"
     id="layer1">
    <rect
       style="fill:#f2f2f2;fill-opacity:1;stroke:#ff0000;stroke-width:0.1;stroke-dasharray:none"
       id="rect16"
       width="1080"
       height="1080"
       x="0"
       y="0" />
    <path
       style="font-weight:300;font-size:419.305px;line-height:0.95;font-family:'Cormorant Garamond';-inkscape-font-specification:'Cormorant Garamond, Light';letter-spacing:-40px;fill:#4d4d4d;fill-opacity:1;stroke:#000000;stroke-width:0"
       d="m 484.7896,1049.6318 q -32.54261,0 -59.20946,-11.2995 -26.21487,-11.7516 -45.19806,-32.0907 -18.5312,-20.33918 -28.92676,-46.55405 -9.94357,-26.66686 -9.94357,-56.49758 0,-36.61043 14.0114,-64.18125 14.46338,-27.57081 37.96638,-45.65004 23.50299,-18.53121 51.52577,-27.57082 28.0228,-9.0396 55.59362,-9.0396 33.44657,0 59.66144,12.20347 26.66685,11.7515 45.19807,32.09062 18.53119,20.33913 28.02279,46.10202 9.94358,25.7629 9.94358,52.88174 0,31.63864 -12.65546,58.75748 -12.65546,27.11883 -34.80251,47.45801 -21.69507,20.3391 -50.62183,32.0907 -28.47477,11.2995 -60.5654,11.2995 z m 16.2713,-9.0396 q 31.63864,0 57.40154,-14.4634 25.76289,-14.9154 40.67826,-43.39025 15.36734,-28.92676 15.36734,-70.05699 0,-42.93816 -16.72329,-75.48076 -16.2713,-32.99458 -46.10202,-51.52579 -29.83072,-18.98319 -70.05699,-18.98319 -52.42975,0 -81.80849,32.54261 -29.37874,32.5426 -29.37874,88.5882 0,31.63864 9.03961,59.66144 9.4916,27.57082 26.66686,48.81388 17.62724,20.79125 41.58221,32.54265 23.95498,11.7516 53.33371,11.7516 z"
       id="path2" />
    <path
       style="font-style:italic;font-weight:300;font-size:419.305px;line-height:0.95;font-family:'Cormorant Garamond';-inkscape-font-specification:'Cormorant Garamond, Light Italic';letter-spacing:-40px;fill:#ff0000;fill-opacity:1;stroke:#000000;stroke-width:0"
       d="m 684.60115,1028.8773 c -9.50425,0 -17.19151,-2.9351 -23.06178,-8.8054 -5.87027,-6.1499 -9.92355,-13.8371 -12.15984,-23.06185 -1.95676,-9.22474 -2.2363,-18.58922 -0.83861,-28.09347 2.23629,-12.85869 6.56911,-26.27645 12.99845,-40.25328 6.70888,-13.97683 12.57915,-26.69575 17.61081,-38.15675 1.67722,-3.91351 2.09653,-6.56911 1.25792,-7.9668 -0.83861,-1.67722 -2.79537,-2.51583 -5.87027,-2.51583 H 560.10298 c -7.26795,0 -12.71892,0.55907 -16.35289,1.67722 -3.63398,0.83861 -6.56912,2.93514 -8.80541,6.28958 -1.95675,3.0749 -4.05328,8.10656 -6.28957,15.09498 -0.55907,1.11815 -1.67722,1.39768 -3.35444,0.83861 -1.39769,-0.55907 -1.81699,-1.53745 -1.25792,-2.93514 4.19305,-12.02007 7.82703,-20.82548 10.90193,-26.41621 3.07491,-5.59073 6.84865,-9.22471 11.32123,-10.90193 4.47259,-1.67722 10.76216,-2.51583 18.86873,-2.51583 h 129.52983 c 2.51583,0 3.91351,0.27954 4.19305,0.83861 0.55907,0.55907 0.27954,1.95676 -0.83861,4.19305 -6.70888,15.37451 -12.85869,31.58764 -18.44942,48.63938 -5.59073,17.05173 -9.22471,32.42625 -10.90193,46.12355 -1.95676,15.93359 -0.69885,28.6525 3.77374,38.15676 4.75213,9.22475 12.02008,13.83715 21.80386,13.83715 7.26795,0 14.53591,-2.3761 21.80386,-7.1282 7.54749,-4.7522 14.67568,-11.32135 21.38456,-19.70741 6.70888,-8.66564 12.57915,-18.86873 17.61081,-30.60927 5.03166,-12.02007 8.52587,-25.1583 10.48262,-39.41467 1.39769,-10.34285 1.25792,-18.58918 -0.4193,-24.73899 -1.67722,-6.14981 -4.75212,-9.22471 -9.22471,-9.22471 -4.47259,0 -7.9668,3.63398 -10.48263,10.90193 -2.23629,6.98841 -3.77374,13.97683 -4.61235,20.96525 -1.95676,13.69729 -2.51583,26.55598 -1.67722,38.57606 1.11815,12.02007 3.49421,22.64247 7.12818,31.86718 3.63398,8.94518 8.3861,15.93363 14.25637,20.96533 6.14981,5.0316 13.13822,7.5475 20.96525,7.5475 6.70888,0 13.83707,-2.9352 21.38456,-8.8055 7.82703,-5.87025 14.95521,-14.1166 21.38455,-24.73899 6.42935,-10.62239 10.90193,-23.06178 13.41776,-37.31815 2.23629,-13.13822 2.79537,-23.48108 1.67722,-31.02857 -0.83861,-7.82703 -2.51583,-13.83706 -5.03166,-18.03011 -2.51583,-4.47259 -5.03166,-8.10656 -7.54749,-10.90193 -1.67722,-1.95676 -3.21467,-3.77375 -4.61235,-5.45097 -1.11815,-1.95675 -1.67722,-4.19305 -1.67722,-6.70888 0,-4.75212 1.67722,-7.96679 5.03166,-9.64401 3.63397,-1.95676 6.84864,-2.93514 9.64401,-2.93514 6.42935,0 10.90193,3.63398 13.41776,10.90193 2.51583,6.98842 3.77375,15.65406 3.77375,25.99691 0.27953,10.06332 -0.27954,19.70734 -1.67722,28.93205 -2.51583,16.7722 -6.70888,31.72741 -12.57915,44.86563 -5.87027,12.85869 -12.71892,23.90038 -20.54595,33.12513 -7.54749,8.9452 -15.37451,15.7938 -23.48108,20.546 -8.10656,4.7521 -15.51428,7.1282 -22.22316,7.1282 -7.82703,0 -14.81544,-2.9351 -20.96525,-8.8054 -5.87027,-5.8703 -10.6224,-13.6974 -14.25637,-23.48115 -3.35444,-10.06336 -5.45097,-21.10506 -6.28958,-33.12513 -0.83861,-12.29961 -0.13976,-24.739 2.09653,-37.31815 1.95675,-12.29961 4.61235,-23.48108 7.96679,-33.5444 3.35444,-10.06332 7.12819,-18.16988 11.32124,-24.31969 4.47259,-6.14981 8.8054,-9.22471 12.99845,-9.22471 6.42935,0 10.6224,4.75212 12.57915,14.25637 2.23629,9.22471 2.23629,19.84711 0,31.86718 -3.63397,21.24479 -8.94517,39.69421 -15.93359,55.34826 -6.98841,15.37452 -14.95521,28.23321 -23.90038,38.57607 -8.66564,10.06335 -17.61081,17.61085 -26.83552,22.64255 -9.22471,4.7521 -17.89035,7.1282 -25.99691,7.1282 z"
       id="path3"
       sodipodi:nodetypes="sccccccsscccccssssccsccsccccsscccccscscccccscscccccssccccscscccccs" />
    <path
       style="font-style:italic;font-weight:bold;font-size:419.305px;line-height:0.95;font-family:'Roboto Condensed';-inkscape-font-specification:'Roboto Condensed, Bold Italic';letter-spacing:0px;fill:#cccccc;fill-opacity:1;stroke:none;stroke-width:0"
       d="m 867.18823,877.0352 q -1.40838,-0.0511 -2.12277,-1.31654 l -0.347,1.11243 h -2.62286 l 2.72492,-15.67589 h 2.80656 l -1.0716,5.54167 q 0.96954,-1.13287 2.17382,-1.11243 1.44921,0.01 2.05134,0.89809 0.61234,0.88794 0.70419,2.12278 0.0919,1.25529 -0.0816,2.7555 -0.1633,1.50029 -0.58173,2.77602 -0.41843,1.27566 -1.27571,2.11257 -0.85728,0.83683 -2.35752,0.7858 z m 0.55111,-9.05246 q -0.80625,-0.0206 -1.43899,0.82669 l -0.8777,5.06204 q 0.30618,0.73477 1.15325,0.76544 0.82666,0.0404 1.22468,-0.4389 0.40822,-0.47963 0.5511,-1.20426 0.15309,-0.73478 0.25515,-1.67374 l 0.15308,-1.5308 q 0.0612,-0.69405 -0.13267,-1.24515 -0.1837,-0.5511 -0.8879,-0.56132 z m 8.39928,10.51187 q -0.45925,1.11242 -1.24509,1.9697 -0.78584,0.85727 -2.11258,0.85727 -0.43884,0 -1.24509,-0.21426 l 0.23473,-2.25551 0.32659,0.0305 q 1.19406,0.0305 1.73496,-1.16345 l 0.42864,-0.93897 -1.14303,-10.99149 h 2.93923 l 0.20411,6.17446 2.49019,-6.17446 h 3.08212 z m 16.60466,-1.66352 -1.6125,-5.70498 -1.50024,1.55132 -0.71439,4.15366 h -2.93925 l 2.57184,-14.8595 h 2.93924 l -1.09201,6.29696 1.17365,-1.55132 3.42911,-4.74564 h 3.73529 l -5.3784,6.66431 2.71471,8.19519 z m 6.72555,-13.84914 q 0,-0.67352 0.42863,-1.13279 0.42864,-0.45926 1.11243,-0.46948 0.65316,-0.01 1.0818,0.41846 0.43884,0.41845 0.43884,1.08175 0.0102,0.66338 -0.41843,1.12265 -0.42864,0.45926 -1.11242,0.46948 -0.65317,0.0206 -1.09201,-0.39801 -0.42864,-0.42868 -0.43884,-1.09206 z m 2.45957,2.80661 -1.91867,11.04253 h -2.82697 l 1.91866,-11.04253 z m 6.17445,2.67389 q -1.14305,-0.01 -1.83703,1.06139 l -1.27572,7.30725 h -2.81677 l 1.91868,-11.04253 2.64327,-0.01 -0.23473,1.21448 q 0.35719,-0.56132 0.82666,-1.00014 0.46946,-0.4389 1.19405,-0.4389 0.3572,0 0.8573,0.14287 l -0.38782,2.86786 z m 3.20457,-5.4805 q 0,-0.67352 0.42864,-1.13279 0.42864,-0.45926 1.11243,-0.46948 0.65317,-0.01 1.08181,0.41846 0.43883,0.41845 0.43883,1.08175 0.0102,0.66338 -0.41843,1.12265 -0.42864,0.45926 -1.11243,0.46948 -0.65316,0.0206 -1.092,-0.39801 -0.42864,-0.42868 -0.43885,-1.09206 z m 2.45957,2.80661 -1.91866,11.04253 h -2.82698 l 1.91866,-11.04253 z m 5.9193,-4.63336 -2.72492,15.67589 h -2.82697 l 2.71471,-15.67589 z m 5.11304,0 -2.72491,15.67589 h -2.82699 l 2.71474,-15.67589 z m 9.99136,0.81639 -2.58203,14.8595 h -2.92902 l 2.58203,-14.8595 z m 9.38925,3.81697 -4.664,11.04253 h -2.69428 l -1.22471,-11.04253 h 2.88823 l 0.26534,6.90924 2.42893,-6.90924 z m 4.4905,11.04253 q -0.0816,-0.37757 -0.0816,-0.85728 -0.95934,1.07161 -2.14319,1.07161 -1.33694,-0.01 -2.07176,-0.97977 -0.73482,-0.9797 -0.67357,-2.24521 0.10205,-1.97992 1.50023,-2.85764 1.40838,-0.88786 3.22501,-0.88786 h 0.88788 l 0.13266,-0.89809 q 0.051,-0.43882 -0.0306,-0.88793 -0.0715,-0.44905 -0.65316,-0.45927 -0.58173,-0.01 -0.84707,0.37765 -0.26533,0.38779 -0.3572,0.88786 l -2.80656,0.0206 q 0.10205,-1.68397 1.37775,-2.62286 1.27574,-0.94911 2.88822,-0.91853 1.64311,0.0404 2.52082,1.03081 0.87768,0.98992 0.71439,2.63308 l -0.82666,5.16402 -0.11227,0.99 q -0.0715,0.66338 0.14288,1.24506 l -0.0101,0.1939 z m -1.439,-2.05132 q 0.7348,0.0206 1.37778,-0.65316 l 0.50007,-2.33712 h -0.61234 q -0.79605,0.0305 -1.30633,0.54088 -0.51029,0.51029 -0.61233,1.29617 -0.051,0.38779 0.0612,0.76536 0.11225,0.36743 0.59193,0.38787 z m 11.24666,-6.79703 q -0.43884,0 -0.75522,0.24493 -0.30616,0.245 -0.56132,0.57154 l -1.39817,8.03188 h -2.82698 l 1.91866,-11.04253 2.62287,-0.01 -0.20411,1.1022 q 1.14304,-1.32676 2.59225,-1.30631 1.14303,0.0206 1.65333,0.71441 0.52047,0.68374 0.62254,1.6533 0.11225,0.96955 0.0205,1.86764 l -1.17367,7.02151 h -2.81677 l 1.17366,-7.0521 q 0.0612,-0.57154 -0.0205,-1.18389 -0.0816,-0.61235 -0.84706,-0.61235 z m 5.09265,3.69447 0.051,-0.46941 q 0.38781,-3.37815 2.44936,-4.87836 1.08181,-0.7858 2.66369,-0.745 1.50024,0.0305 2.3371,0.82662 0.83687,0.7961 1.11241,2.02072 0.28578,1.21448 0.15309,2.5208 l -0.051,0.46948 q -0.38782,3.40874 -2.47998,4.89873 -1.06141,0.75522 -2.62287,0.71441 -1.51043,-0.0305 -2.3473,-0.82661 -0.82666,-0.7961 -1.11244,-2.01058 -0.28574,-1.21448 -0.15306,-2.5208 z m 2.77594,1.14309 q -0.0205,0.69396 0.19391,1.24506 0.22452,0.5511 0.89809,0.58169 0.73482,0.0511 1.14305,-0.41838 0.40822,-0.4797 0.61234,-1.19411 0.20411,-0.71434 0.33677,-2.10235 l 0.051,-1.13286 q 0.0101,-0.68375 -0.21432,-1.23485 -0.21432,-0.56132 -0.88791,-0.60213 -0.76541,-0.0404 -1.19405,0.52044 -0.42864,0.56132 -0.66339,1.60235 -0.22452,1.03073 -0.27554,2.73514 z m 16.24745,-7.03174 -4.664,11.04253 h -2.6943 l -1.22469,-11.04253 h 2.88821 l 0.26535,6.90924 2.42896,-6.90924 z"
       id="text7"
       aria-label="by Kirill Ivanov" />
    <path
       style="font-style:italic;font-weight:300;font-size:419.305px;line-height:0.95;font-family:'Cormorant Garamond';-inkscape-font-specification:'Cormorant Garamond, Light Italic';letter-spacing:-40px;fill:#4d4d4d;fill-opacity:1;stroke:#000000;stroke-width:0"
       d="m 882.23448,1049.6318 q -36.61044,0 -61.01739,-19.8872 -23.95497,-19.8872 -33.44657,-53.33378 -9.03961,-33.44656 -2.25989,-73.67283 5.42376,-32.09063 19.88714,-58.75748 14.46338,-26.66686 34.80251,-46.10202 20.7911,-19.88715 45.65004,-30.28271 25.31092,-10.84752 52.42975,-10.84752 38.41835,0 62.37333,20.33912 24.407,19.88715 33.4466,53.33371 9.4916,32.99458 2.2599,72.3169 -5.8757,32.5426 -20.7911,59.66144 -14.4634,26.66685 -35.70651,46.55407 -20.79111,19.4351 -46.10202,30.2828 -24.85894,10.3955 -51.52579,10.3955 z m 18.98318,-11.7516 q 40.22627,0 69.60502,-28.0228 29.37872,-28.47478 40.67832,-83.16444 7.2317,-33.89854 4.0678,-62.8253 -3.1639,-28.92676 -15.81932,-50.62183 -12.20353,-21.69507 -32.54265,-33.44656 -20.33913,-12.20349 -47.45797,-12.20349 -42.48618,0 -71.41293,30.28271 -28.47478,29.83072 -38.41835,80.90452 -6.32773,32.09063 -3.16387,61.01739 3.16387,28.47477 14.91537,50.62183 11.75149,22.14707 31.63864,34.80257 20.33912,12.6554 47.90994,12.6554 z"
       id="path6" />
    <path
       style="font-weight:300;font-size:419.305px;line-height:0.95;font-family:'Cormorant Garamond';-inkscape-font-specification:'Cormorant Garamond, Light';letter-spacing:-40px;fill:#1a1a1a;fill-opacity:1;stroke:#000000;stroke-width:0"
       d="m 1329.3025,1080 q -32.5426,0 -59.2095,-11.2995 -26.2148,-11.7516 -45.198,-32.0907 -18.5312,-20.3392 -28.9268,-46.55405 -9.9436,-26.66686 -9.9436,-56.49758 0,-36.61043 14.0114,-64.18125 14.4634,-27.57081 37.9664,-45.65004 23.503,-18.53121 51.5258,-27.57082 28.0228,-9.0396 55.5936,-9.0396 33.4466,0 59.6615,12.20347 26.6668,11.7515 45.198,32.09062 18.5312,20.33913 28.0228,46.10202 9.9436,25.7629 9.9436,52.88174 0,31.63864 -12.6555,58.75748 -12.6554,27.11881 -34.8025,47.45801 -21.695,20.3391 -50.6218,32.0907 Q 1361.3931,1080 1329.3025,1080 Z m 16.2713,-9.0396 q 31.6386,0 57.4015,-14.4634 25.7629,-14.9154 40.6783,-43.3903 15.3673,-28.92671 15.3673,-70.05694 0,-42.93816 -16.7233,-75.48076 -16.2713,-32.99458 -46.102,-51.52579 -29.8307,-18.98319 -70.057,-18.98319 -52.4297,0 -81.8085,32.54261 -29.3787,32.5426 -29.3787,88.5882 0,31.63864 9.0396,59.66144 9.4916,27.57083 26.6669,48.81383 17.6272,20.7913 41.5822,32.5427 23.955,11.7516 53.3337,11.7516 z"
       id="path12" />
    <path
       style="font-style:italic;font-weight:300;font-size:419.305px;line-height:0.95;font-family:'Cormorant Garamond';-inkscape-font-specification:'Cormorant Garamond, Light Italic';letter-spacing:-40px;fill:#1a1a1a;fill-opacity:1;stroke:#000000;stroke-width:0"
       d="m 1529.114,1059.2455 c -9.5042,0 -17.1915,-2.9351 -23.0617,-8.8054 -5.8703,-6.1499 -9.9236,-13.8371 -12.1599,-23.0619 -1.9567,-9.2247 -2.2363,-18.5892 -0.8386,-28.09342 2.2363,-12.85869 6.5691,-26.27645 12.9985,-40.25328 6.7088,-13.97683 12.5791,-26.69575 17.6108,-38.15675 1.6772,-3.91351 2.0965,-6.56911 1.2579,-7.9668 -0.8386,-1.67722 -2.7954,-2.51583 -5.8703,-2.51583 h -114.4348 c -7.268,0 -12.7189,0.55907 -16.3529,1.67722 -3.634,0.83861 -6.5691,2.93514 -8.8054,6.28958 -1.9568,3.0749 -4.0533,8.10656 -6.2896,15.09498 -0.5591,1.11815 -1.6772,1.39768 -3.3544,0.83861 -1.3977,-0.55907 -1.817,-1.53745 -1.258,-2.93514 4.1931,-12.02007 7.8271,-20.82548 10.902,-26.41621 3.0749,-5.59073 6.8486,-9.22471 11.3212,-10.90193 4.4726,-1.67722 10.7622,-2.51583 18.8687,-2.51583 h 129.5299 c 2.5158,0 3.9135,0.27954 4.193,0.83861 0.5591,0.55907 0.2796,1.95676 -0.8386,4.19305 -6.7089,15.37451 -12.8587,31.58764 -18.4494,48.63938 -5.5907,17.05173 -9.2247,32.42625 -10.9019,46.12355 -1.9568,15.93361 -0.6989,28.65251 3.7737,38.15671 4.7521,9.2248 12.0201,13.8372 21.8039,13.8372 7.2679,0 14.5359,-2.3761 21.8038,-7.1282 7.5475,-4.7522 14.6757,-11.3214 21.3846,-19.7074 6.7089,-8.6657 12.5791,-18.86874 17.6108,-30.60928 5.0316,-12.02007 8.5259,-25.1583 10.4826,-39.41467 1.3977,-10.34285 1.2579,-18.58918 -0.4193,-24.73899 -1.6772,-6.14981 -4.7521,-9.22471 -9.2247,-9.22471 -4.4726,0 -7.9668,3.63398 -10.4826,10.90193 -2.2363,6.98841 -3.7738,13.97683 -4.6124,20.96525 -1.9567,13.69729 -2.5158,26.55598 -1.6772,38.57606 1.1181,12.02007 3.4942,22.64251 7.1282,31.86721 3.634,8.9451 8.3861,15.9336 14.2563,20.9653 6.1499,5.0316 13.1383,7.5475 20.9653,7.5475 6.7089,0 13.8371,-2.9352 21.3846,-8.8055 7.827,-5.8703 14.9552,-14.1166 21.3845,-24.739 6.4294,-10.62238 10.9019,-23.06177 13.4178,-37.31814 2.2363,-13.13822 2.7953,-23.48108 1.6772,-31.02857 -0.8386,-7.82703 -2.5158,-13.83706 -5.0317,-18.03011 -2.5158,-4.47259 -5.0316,-8.10656 -7.5475,-10.90193 -1.6772,-1.95676 -3.2146,-3.77375 -4.6123,-5.45097 -1.1182,-1.95675 -1.6772,-4.19305 -1.6772,-6.70888 0,-4.75212 1.6772,-7.96679 5.0316,-9.64401 3.634,-1.95676 6.8487,-2.93514 9.644,-2.93514 6.4294,0 10.902,3.63398 13.4178,10.90193 2.5158,6.98842 3.7737,15.65406 3.7737,25.99691 0.2796,10.06332 -0.2795,19.70734 -1.6772,28.93205 -2.5158,16.7722 -6.7089,31.72741 -12.5791,44.86563 -5.8703,12.85873 -12.7189,23.90033 -20.546,33.12513 -7.5475,8.9452 -15.3745,15.7938 -23.4811,20.546 -8.1065,4.7521 -15.5142,7.1282 -22.2231,7.1282 -7.827,0 -14.8155,-2.9351 -20.9653,-8.8054 -5.8702,-5.8703 -10.6224,-13.6974 -14.2563,-23.4812 -3.3545,-10.0633 -5.451,-21.105 -6.2896,-33.12508 -0.8386,-12.29961 -0.1398,-24.739 2.0965,-37.31815 1.9568,-12.29961 4.6124,-23.48108 7.9668,-33.5444 3.3544,-10.06332 7.1282,-18.16988 11.3212,-24.31969 4.4726,-6.14981 8.8054,-9.22471 12.9985,-9.22471 6.4293,0 10.6224,4.75212 12.5791,14.25637 2.2363,9.22471 2.2363,19.84711 0,31.86718 -3.6339,21.24479 -8.9451,39.69421 -15.9335,55.34826 -6.9885,15.37452 -14.9553,28.23322 -23.9004,38.57602 -8.6657,10.0634 -17.6108,17.6109 -26.8355,22.6426 -9.2248,4.7521 -17.8904,7.1282 -25.997,7.1282 z"
       id="path13"
       sodipodi:nodetypes="sccccccsscccccssssccsccsccccsscccccscscccccscscccccssccccscscccccs" />
    <path
       style="font-style:italic;font-weight:300;font-size:419.305px;line-height:0.95;font-family:'Cormorant Garamond';-inkscape-font-specification:'Cormorant Garamond, Light Italic';letter-spacing:-40px;fill:#1a1a1a;fill-opacity:1;stroke:#000000;stroke-width:0"
       d="m 1726.7474,1080 q -36.6105,0 -61.0174,-19.8872 -23.955,-19.8872 -33.4466,-53.3338 -9.0396,-33.44654 -2.2599,-73.67281 5.4238,-32.09063 19.8872,-58.75748 14.4633,-26.66686 34.8025,-46.10202 20.7911,-19.88715 45.65,-30.28271 25.3109,-10.84752 52.4298,-10.84752 38.4183,0 62.3733,20.33912 24.407,19.88715 33.4466,53.33371 9.4916,32.99458 2.2599,72.3169 -5.8757,32.5426 -20.7911,59.66144 -14.4634,26.66687 -35.7065,46.55407 -20.7911,19.4351 -46.102,30.2828 Q 1753.4142,1080 1726.7474,1080 Z m 18.9832,-11.7516 q 40.2262,0 69.605,-28.0228 29.3787,-28.4748 40.6783,-83.16444 7.2317,-33.89854 4.0678,-62.8253 -3.1639,-28.92676 -15.8193,-50.62183 -12.2036,-21.69507 -32.5427,-33.44656 -20.3391,-12.20349 -47.4579,-12.20349 -42.4862,0 -71.413,30.28271 -28.4748,29.83072 -38.4183,80.90452 -6.3278,32.09063 -3.1639,61.01739 3.1639,28.47477 14.9154,50.6218 11.7515,22.1471 31.6386,34.8026 20.3391,12.6554 47.91,12.6554 z"
       id="path15" />
    <path
       style="font-style:italic;font-weight:300;font-size:419.305px;line-height:0.95;font-family:'Cormorant Garamond';-inkscape-font-specification:'Cormorant Garamond, Light Italic';letter-spacing:-40px;fill:#1a1a1a;fill-opacity:1;stroke:#000000;stroke-width:0"
       d="m 2133.4905,1080 c -9.5042,0 -17.1915,-2.9351 -23.0617,-8.8054 -5.8703,-6.1499 -9.9236,-13.8372 -12.1599,-23.062 -1.9567,-9.2247 -2.2363,-18.5892 -0.8386,-28.0934 2.2363,-12.8587 6.5691,-26.27649 12.9985,-40.25332 6.7088,-13.97683 12.5791,-26.69575 17.6108,-38.15675 1.6772,-3.91351 2.0965,-6.56911 1.2579,-7.9668 -0.8386,-1.67722 -2.7954,-2.51583 -5.8703,-2.51583 h -114.4348 c -7.268,0 -12.7189,0.55907 -16.3529,1.67722 -3.634,0.83861 -6.5691,2.93514 -8.8054,6.28958 -1.9568,3.0749 -4.0533,8.10656 -6.2896,15.09498 -0.5591,1.11815 -1.6772,1.39768 -3.3544,0.83861 -1.3977,-0.55907 -1.817,-1.53745 -1.258,-2.93514 4.1931,-12.02007 7.8271,-20.82548 10.902,-26.41621 3.0749,-5.59073 6.8486,-9.22471 11.3212,-10.90193 4.4726,-1.67722 10.7622,-2.51583 18.8687,-2.51583 h 129.5299 c 2.5158,0 3.9135,0.27954 4.193,0.83861 0.5591,0.55907 0.2796,1.95676 -0.8386,4.19305 -6.7089,15.37451 -12.8587,31.58764 -18.4494,48.63938 -5.5907,17.05173 -9.2247,32.42625 -10.9019,46.12358 -1.9568,15.9336 -0.6989,28.6524 3.7737,38.1566 4.7521,9.2249 12.0201,13.8374 21.8039,13.8374 7.2679,0 14.5359,-2.3761 21.8038,-7.1284 7.5475,-4.7522 14.6757,-11.3214 21.3846,-19.7074 6.7089,-8.6657 12.5791,-18.8687 17.6108,-30.6092 5.0316,-12.02007 8.5259,-25.1583 10.4826,-39.41467 1.3977,-10.34285 1.2579,-18.58918 -0.4193,-24.73899 -1.6772,-6.14981 -4.7521,-9.22471 -9.2247,-9.22471 -4.4726,0 -7.9668,3.63398 -10.4826,10.90193 -2.2363,6.98841 -3.7738,13.97683 -4.6124,20.96525 -1.9567,13.69729 -2.5158,26.55598 -1.6772,38.57609 1.1181,12.02 3.4942,22.6425 7.1282,31.8671 3.634,8.9451 8.3861,15.9336 14.2563,20.9653 6.1499,5.0317 13.1383,7.5476 20.9653,7.5476 6.7089,0 13.8371,-2.9352 21.3846,-8.8056 7.827,-5.8703 14.9552,-14.1166 21.3845,-24.739 6.4294,-10.6223 10.9019,-23.0617 13.4178,-37.31806 2.2363,-13.13822 2.7953,-23.48108 1.6772,-31.02857 -0.8386,-7.82703 -2.5158,-13.83706 -5.0317,-18.03011 -2.5158,-4.47259 -5.0316,-8.10656 -7.5475,-10.90193 -1.6772,-1.95676 -3.2146,-3.77375 -4.6123,-5.45097 -1.1182,-1.95675 -1.6772,-4.19305 -1.6772,-6.70888 0,-4.75212 1.6772,-7.96679 5.0316,-9.64401 3.634,-1.95676 6.8487,-2.93514 9.644,-2.93514 6.4294,0 10.902,3.63398 13.4178,10.90193 2.5158,6.98842 3.7737,15.65406 3.7737,25.99691 0.2796,10.06332 -0.2795,19.70734 -1.6772,28.93205 -2.5158,16.7722 -6.7089,31.72738 -12.5791,44.86568 -5.8703,12.8586 -12.7189,23.9002 -20.546,33.125 -7.5475,8.9453 -15.3745,15.7939 -23.4811,20.5461 -8.1065,4.7521 -15.5142,7.1282 -22.2231,7.1282 -7.827,0 -14.8155,-2.9351 -20.9653,-8.8054 -5.8702,-5.8703 -10.6224,-13.6975 -14.2563,-23.4813 -3.3545,-10.0633 -5.451,-21.1049 -6.2896,-33.125 -0.8386,-12.2996 -0.1398,-24.739 2.0965,-37.31815 1.9568,-12.29961 4.6124,-23.48108 7.9668,-33.5444 3.3544,-10.06332 7.1282,-18.16988 11.3212,-24.31969 4.4726,-6.14981 8.8054,-9.22471 12.9985,-9.22471 6.4293,0 10.6224,4.75212 12.5791,14.25637 2.2363,9.22471 2.2363,19.84711 0,31.86718 -3.6339,21.24479 -8.9451,39.69421 -15.9335,55.3483 -6.9885,15.3745 -14.9553,28.2331 -23.9004,38.5759 -8.6657,10.0634 -17.6108,17.611 -26.8355,22.6427 -9.2248,4.7521 -17.8904,7.1282 -25.997,7.1283 z"
       id="path13-5"
       sodipodi:nodetypes="sccccccsscccccssssccsccsccccsscccccscscccccscscccccssccccscscccccs" />
    <path
       style="font-style:italic;font-weight:300;font-size:419.305px;line-height:0.95;font-family:'Cormorant Garamond';-inkscape-font-specification:'Cormorant Garamond, Light Italic';letter-spacing:-40px;fill:#ff0000;fill-opacity:1;stroke:#000000;stroke-width:0"
       d="m 2536.9039,1080 c -9.5042,0 -17.1915,-2.9351 -23.0617,-8.8054 -5.8703,-6.1499 -9.9236,-13.8372 -12.1599,-23.062 -1.9567,-9.2247 -2.2363,-18.5892 -0.8386,-28.0934 2.2363,-12.8587 6.5691,-26.27651 12.9985,-40.25334 6.7088,-13.97683 12.5791,-26.69575 17.6108,-38.15675 1.6772,-3.91351 2.0965,-6.56911 1.2579,-7.9668 -0.8386,-1.67722 -2.7954,-2.51583 -5.8703,-2.51583 h -114.4348 c -7.268,0 -12.7189,0.55907 -16.3529,1.67722 -3.634,0.83861 -6.5691,2.93514 -8.8054,6.28958 -1.9568,3.0749 -4.0533,8.10656 -6.2896,15.09498 -0.5591,1.11815 -1.6772,1.39768 -3.3544,0.83861 -1.3977,-0.55907 -1.817,-1.53745 -1.258,-2.93514 4.1931,-12.02007 7.8271,-20.82548 10.902,-26.41621 3.0749,-5.59073 6.8486,-9.22471 11.3212,-10.90193 4.4726,-1.67722 10.7622,-2.51583 18.8687,-2.51583 h 129.5299 c 2.5158,0 3.9135,0.27954 4.193,0.83861 0.5591,0.55907 0.2796,1.95676 -0.8386,4.19305 -6.7089,15.37451 -12.8587,31.58764 -18.4494,48.63938 -5.5907,17.05173 -9.2247,32.42625 -10.9019,46.1236 -1.9568,15.9336 -0.6989,28.6524 3.7737,38.1566 4.7521,9.2249 12.0201,13.8374 21.8039,13.8374 7.2679,0 14.5359,-2.3761 21.8038,-7.1284 7.5475,-4.7522 14.6757,-11.3214 21.3846,-19.7074 6.7089,-8.6657 12.5791,-18.8687 17.6108,-30.6092 5.0316,-12.02009 8.5259,-25.15832 10.4826,-39.41469 1.3977,-10.34285 1.2579,-18.58918 -0.4193,-24.73899 -1.6772,-6.14981 -4.7521,-9.22471 -9.2247,-9.22471 -4.4726,0 -7.9668,3.63398 -10.4826,10.90193 -2.2363,6.98841 -3.7738,13.97683 -4.6124,20.96525 -1.9567,13.69729 -2.5158,26.55598 -1.6772,38.57611 1.1181,12.02 3.4942,22.6425 7.1282,31.8671 3.634,8.9451 8.3861,15.9336 14.2563,20.9653 6.1499,5.0317 13.1383,7.5476 20.9653,7.5476 6.7089,0 13.8371,-2.9352 21.3846,-8.8056 7.827,-5.8703 14.9552,-14.1166 21.3845,-24.739 6.4294,-10.6223 10.9019,-23.0617 13.4178,-37.31808 2.2363,-13.13822 2.7953,-23.48108 1.6772,-31.02857 -0.8386,-7.82703 -2.5158,-13.83706 -5.0317,-18.03011 -2.5158,-4.47259 -5.0316,-8.10656 -7.5475,-10.90193 -1.6772,-1.95676 -3.2146,-3.77375 -4.6123,-5.45097 -1.1182,-1.95675 -1.6772,-4.19305 -1.6772,-6.70888 0,-4.75212 1.6772,-7.96679 5.0316,-9.64401 3.634,-1.95676 6.8487,-2.93514 9.644,-2.93514 6.4294,0 10.902,3.63398 13.4178,10.90193 2.5158,6.98842 3.7737,15.65406 3.7737,25.99691 0.2796,10.06332 -0.2795,19.70734 -1.6772,28.93205 -2.5158,16.7722 -6.7089,31.7274 -12.5791,44.8657 -5.8703,12.8586 -12.7189,23.9002 -20.546,33.125 -7.5475,8.9453 -15.3745,15.7939 -23.4811,20.5461 -8.1065,4.7521 -15.5142,7.1282 -22.2231,7.1282 -7.827,0 -14.8155,-2.9351 -20.9653,-8.8054 -5.8702,-5.8703 -10.6224,-13.6975 -14.2563,-23.4813 -3.3545,-10.0633 -5.451,-21.1049 -6.2896,-33.125 -0.8386,-12.2996 -0.1398,-24.73902 2.0965,-37.31817 1.9568,-12.29961 4.6124,-23.48108 7.9668,-33.5444 3.3544,-10.06332 7.1282,-18.16988 11.3212,-24.31969 4.4726,-6.14981 8.8054,-9.22471 12.9985,-9.22471 6.4293,0 10.6224,4.75212 12.5791,14.25637 2.2363,9.22471 2.2363,19.84711 0,31.86718 -3.6339,21.24479 -8.9451,39.69421 -15.9335,55.34832 -6.9885,15.3745 -14.9553,28.2331 -23.9004,38.5759 -8.6657,10.0634 -17.6108,17.611 -26.8355,22.6427 -9.2248,4.7521 -17.8904,7.1282 -25.997,7.1283 z"
       id="path13-5-7"
       sodipodi:nodetypes="sccccccsscccccssssccsccsccccsscccccscscccccscscccccssccccscscccccs" />
  </g>
</svg>
